# Blender v2.74 (sub 0) OBJ File: ''
# www.blender.org
mtllib cube.mtl
o Cube.002
v 1.000000 -1.000000 -1.000000
v 1.000000 -1.000000 1.000000
v -1.000000 -1.000000 1.000000
v -1.000000 -1.000000 -1.000000
v 1.000000 1.000000 -0.999999
v -1.000000 1.000000 -1.000000
v -1.000000 1.000000 1.000000
v 0.999999 1.000000 1.000001
vt 0.333533 0.333134
vt 0.333533 0.000200
vt 0.666467 0.000200
vt 0.333134 0.333133
vt 0.000200 0.333134
vt 0.000200 0.000200
vt 0.333133 0.666467
vt 0.000200 0.666467
vt 0.000200 0.333533
vt 0.333133 0.999800
vt 0.000200 0.999800
vt 0.000200 0.666866
vt 0.666867 0.000200
vt 0.999800 0.000200
vt 0.999800 0.333134
vt 0.666467 0.666467
vt 0.333533 0.666467
vt 0.333533 0.333533
vt 0.666467 0.333134
vt 0.333133 0.000200
vt 0.333134 0.333533
vt 0.333134 0.666866
vt 0.666867 0.333134
vt 0.666467 0.333533
vn 0.000000 -1.000000 -0.000000
vn -0.000000 1.000000 0.000000
vn 1.000000 0.000000 0.000000
vn -0.000000 -0.000000 1.000000
vn -1.000000 -0.000000 0.000000
vn 0.000000 0.000000 -1.000000
usemtl Material.002
s 1
f 2/1/1 3/2/1 4/3/1
f 5/4/2 6/5/2 7/6/2
f 5/7/3 8/8/3 2/9/3
f 8/10/4 7/11/4 3/12/4
f 7/13/5 6/14/5 4/15/5
f 1/16/6 4/17/6 6/18/6
f 1/19/1 2/1/1 4/3/1
f 8/20/2 5/4/2 7/6/2
f 1/21/3 5/7/3 2/9/3
f 2/22/4 8/10/4 3/12/4
f 3/23/5 7/13/5 4/15/5
f 5/24/6 1/16/6 6/18/6
