# Blender v2.74 (sub 0) OBJ File: ''
# www.blender.org
mtllib UVsphereLow.mtl
o Sphere
v -0.866025 -0.500000 0.000000
v -0.328166 0.939693 -0.096358
v -0.616750 0.766044 -0.181094
v -0.830945 0.500000 -0.243988
v -0.944916 0.173648 -0.277452
v -0.944916 -0.173648 -0.277452
v -0.830945 -0.500000 -0.243988
v -0.616750 -0.766044 -0.181094
v -0.328166 -0.939693 -0.096358
v -0.287726 0.939693 -0.184910
v -0.540747 0.766044 -0.347517
v -0.728547 0.500000 -0.468209
v -0.828473 0.173648 -0.532427
v -0.828473 -0.173648 -0.532427
v -0.728547 -0.500000 -0.468209
v -0.540747 -0.766044 -0.347517
v -0.287726 -0.939693 -0.184910
v -0.223976 0.939693 -0.258481
v -0.420936 0.766044 -0.485786
v -0.567126 0.500000 -0.654498
v -0.644912 0.173648 -0.744268
v -0.644912 -0.173648 -0.744268
v -0.567126 -0.500000 -0.654498
v -0.420936 -0.766044 -0.485786
v -0.223976 -0.939693 -0.258482
v -0.142080 0.939693 -0.311112
v -0.267024 0.766044 -0.584700
v -0.359760 0.500000 -0.787764
v -0.409104 0.173648 -0.895813
v -0.409104 -0.173648 -0.895812
v -0.359760 -0.500000 -0.787764
v -0.267024 -0.766044 -0.584700
v -0.142080 -0.939693 -0.311112
v -0.048675 0.939693 -0.338539
v -0.091478 0.766044 -0.636245
v -0.123248 0.500000 -0.857210
v -0.140153 0.173648 -0.974784
v -0.140153 -0.173648 -0.974784
v -0.123248 -0.500000 -0.857210
v -0.091478 -0.766044 -0.636245
v -0.048675 -0.939693 -0.338539
v 0.048674 0.939693 -0.338539
v 0.091478 0.766044 -0.636245
v 0.123248 0.500000 -0.857210
v 0.140153 0.173648 -0.974784
v 0.140153 -0.173648 -0.974784
v 0.123248 -0.500000 -0.857210
v 0.091478 -0.766044 -0.636245
v 0.048674 -0.939693 -0.338539
v 0.142080 0.939693 -0.311112
v 0.267023 0.766044 -0.584700
v 0.359760 0.500000 -0.787764
v 0.409104 0.173648 -0.895813
v 0.409104 -0.173648 -0.895812
v 0.359760 -0.500000 -0.787764
v 0.267023 -0.766044 -0.584700
v 0.142080 -0.939693 -0.311112
v -0.000000 1.000000 0.000000
v 0.223975 0.939693 -0.258482
v 0.420936 0.766044 -0.485786
v 0.567126 0.500000 -0.654498
v 0.644912 0.173648 -0.744268
v 0.644912 -0.173648 -0.744268
v 0.567126 -0.500000 -0.654498
v 0.420936 -0.766044 -0.485786
v 0.223975 -0.939693 -0.258482
v 0.287725 0.939693 -0.184910
v 0.540747 0.766044 -0.347517
v 0.728547 0.500000 -0.468209
v 0.828473 0.173648 -0.532427
v 0.828473 -0.173648 -0.532427
v 0.728547 -0.500000 -0.468208
v 0.540747 -0.766044 -0.347517
v 0.287726 -0.939693 -0.184910
v 0.328166 0.939693 -0.096358
v 0.616750 0.766044 -0.181094
v 0.830945 0.500000 -0.243987
v 0.944916 0.173648 -0.277452
v 0.944916 -0.173648 -0.277452
v 0.830945 -0.500000 -0.243987
v 0.616750 -0.766044 -0.181094
v 0.328166 -0.939693 -0.096358
v 0.342020 0.939693 0.000000
v 0.642787 0.766044 -0.000000
v 0.866025 0.500000 0.000000
v 0.984807 0.173648 0.000000
v 0.984807 -0.173648 -0.000000
v 0.866025 -0.500000 0.000000
v 0.642787 -0.766044 -0.000000
v 0.342020 -0.939693 0.000000
v 0.328166 0.939693 0.096358
v 0.616750 0.766044 0.181094
v 0.830945 0.500000 0.243988
v 0.944916 0.173648 0.277452
v 0.944916 -0.173648 0.277452
v 0.830945 -0.500000 0.243987
v 0.616750 -0.766044 0.181094
v 0.328166 -0.939693 0.096358
v 0.287725 0.939693 0.184910
v 0.540747 0.766044 0.347517
v 0.728547 0.500000 0.468209
v 0.828473 0.173648 0.532427
v 0.828473 -0.173648 0.532427
v 0.728546 -0.500000 0.468208
v 0.540747 -0.766044 0.347517
v 0.287726 -0.939693 0.184910
v 0.223975 0.939693 0.258482
v 0.420936 0.766044 0.485786
v 0.567126 0.500000 0.654498
v 0.644912 0.173648 0.744268
v 0.644912 -0.173648 0.744268
v 0.567126 -0.500000 0.654498
v 0.420936 -0.766044 0.485786
v 0.223975 -0.939693 0.258482
v 0.142080 0.939693 0.311112
v 0.267024 0.766044 0.584700
v 0.359760 0.500000 0.787764
v 0.409104 0.173648 0.895813
v 0.409104 -0.173648 0.895812
v 0.359760 -0.500000 0.787764
v 0.267024 -0.766044 0.584700
v 0.142080 -0.939693 0.311112
v 0.048674 0.939693 0.338539
v 0.091478 0.766044 0.636245
v 0.123248 0.500000 0.857210
v 0.140153 0.173648 0.974784
v 0.140153 -0.173648 0.974784
v 0.123248 -0.500000 0.857210
v 0.091478 -0.766044 0.636245
v 0.048674 -0.939693 0.338539
v -0.000000 -1.000000 0.000000
v -0.048675 0.939693 0.338539
v -0.091478 0.766044 0.636245
v -0.123248 0.500000 0.857210
v -0.140153 0.173648 0.974784
v -0.140153 -0.173648 0.974784
v -0.123248 -0.500000 0.857210
v -0.091478 -0.766044 0.636245
v -0.048675 -0.939693 0.338539
v -0.142080 0.939693 0.311112
v -0.267024 0.766044 0.584700
v -0.359760 0.500000 0.787764
v -0.409104 0.173648 0.895813
v -0.409104 -0.173648 0.895813
v -0.359760 -0.500000 0.787764
v -0.267024 -0.766044 0.584700
v -0.142080 -0.939693 0.311112
v -0.223976 0.939693 0.258481
v -0.420937 0.766044 0.485787
v -0.567126 0.500000 0.654498
v -0.644912 0.173648 0.744268
v -0.644912 -0.173648 0.744268
v -0.567126 -0.500000 0.654498
v -0.420937 -0.766044 0.485787
v -0.223976 -0.939693 0.258482
v -0.287726 0.939693 0.184910
v -0.540748 0.766044 0.347517
v -0.728547 0.500000 0.468209
v -0.828473 0.173648 0.532427
v -0.828473 -0.173648 0.532427
v -0.728547 -0.500000 0.468208
v -0.540748 -0.766044 0.347517
v -0.287726 -0.939693 0.184910
v -0.328166 0.939693 0.096358
v -0.616750 0.766044 0.181094
v -0.830945 0.500000 0.243987
v -0.944916 0.173648 0.277452
v -0.944916 -0.173648 0.277452
v -0.830945 -0.500000 0.243987
v -0.616750 -0.766044 0.181094
v -0.328166 -0.939693 0.096358
v -0.342020 0.939693 0.000000
v -0.642788 0.766044 0.000000
v -0.866026 0.500000 -0.000000
v -0.984808 0.173648 0.000000
v -0.984808 -0.173648 0.000000
v -0.642788 -0.766044 0.000000
v -0.342020 -0.939693 -0.000000
vn -0.458300 -0.863800 -0.209300
vn -0.699800 -0.638900 -0.319600
vn -0.855800 -0.338900 -0.390800
vn -0.909600 -0.000000 -0.415400
vn -0.855800 0.338900 -0.390800
vn -0.699800 0.638900 -0.319600
vn -0.458300 0.863800 -0.209300
vn -0.380800 -0.863800 -0.329900
vn -0.581400 -0.638900 -0.503800
vn -0.711000 -0.338900 -0.616100
vn -0.755700 -0.000000 -0.654900
vn -0.711000 0.338900 -0.616100
vn -0.581400 0.638900 -0.503800
vn -0.380800 0.863800 -0.329900
vn -0.272400 -0.863800 -0.423900
vn -0.415900 -0.638900 -0.647200
vn -0.508600 -0.338900 -0.791500
vn -0.540600 -0.000000 -0.841300
vn -0.508600 0.338900 -0.791500
vn -0.415900 0.638900 -0.647200
vn -0.272400 0.863800 -0.423900
vn -0.141900 -0.863800 -0.483400
vn -0.216700 -0.638900 -0.738100
vn -0.265100 -0.338900 -0.902700
vn -0.281700 -0.000000 -0.959500
vn -0.265100 0.338900 -0.902700
vn -0.216700 0.638900 -0.738100
vn -0.141900 0.863800 -0.483400
vn 0.000000 -0.863800 -0.503800
vn 0.000000 -0.638900 -0.769300
vn 0.000000 -0.338900 -0.940800
vn 0.000000 -0.000000 -1.000000
vn 0.000000 0.338900 -0.940800
vn 0.000000 0.638900 -0.769300
vn 0.000000 0.863800 -0.503800
vn 0.141900 -0.863800 -0.483400
vn 0.216700 -0.638900 -0.738100
vn 0.265100 -0.338900 -0.902700
vn 0.281700 -0.000000 -0.959500
vn 0.265100 0.338900 -0.902700
vn 0.216700 0.638900 -0.738100
vn 0.141900 0.863800 -0.483400
vn 0.272400 -0.863800 -0.423900
vn 0.415900 -0.638900 -0.647200
vn 0.508600 -0.338900 -0.791500
vn 0.540600 -0.000000 -0.841300
vn 0.508600 0.338900 -0.791500
vn 0.415900 0.638900 -0.647200
vn 0.272400 0.863800 -0.423900
vn 0.380800 -0.863800 -0.329900
vn 0.581400 -0.638900 -0.503800
vn 0.711000 -0.338900 -0.616100
vn 0.755700 -0.000000 -0.654900
vn 0.711000 0.338900 -0.616100
vn 0.581400 0.638900 -0.503800
vn 0.380800 0.863800 -0.329900
vn 0.458300 -0.863800 -0.209300
vn 0.699800 -0.638900 -0.319600
vn 0.855800 -0.338900 -0.390800
vn 0.909600 -0.000000 -0.415400
vn 0.855800 0.338900 -0.390800
vn 0.699800 0.638900 -0.319600
vn 0.458300 0.863800 -0.209300
vn 0.498700 -0.863800 -0.071700
vn 0.761400 -0.638900 -0.109500
vn 0.931200 -0.338900 -0.133900
vn 0.989800 -0.000000 -0.142300
vn 0.931200 0.338900 -0.133900
vn 0.761400 0.638900 -0.109500
vn 0.498700 0.863800 -0.071700
vn 0.498700 -0.863800 0.071700
vn 0.761400 -0.638900 0.109500
vn 0.931200 -0.338900 0.133900
vn 0.989800 -0.000000 0.142300
vn 0.931200 0.338900 0.133900
vn 0.761400 0.638900 0.109500
vn 0.498700 0.863800 0.071700
vn 0.458300 -0.863800 0.209300
vn 0.699800 -0.638900 0.319600
vn 0.855800 -0.338900 0.390800
vn 0.909600 -0.000000 0.415400
vn 0.855800 0.338900 0.390800
vn 0.699800 0.638900 0.319600
vn 0.458300 0.863800 0.209300
vn 0.380800 -0.863800 0.329900
vn 0.581400 -0.638900 0.503800
vn 0.711000 -0.338900 0.616100
vn 0.755700 -0.000000 0.654900
vn 0.711000 0.338900 0.616100
vn 0.581400 0.638900 0.503800
vn 0.380800 0.863800 0.329900
vn 0.272400 -0.863800 0.423900
vn 0.415900 -0.638900 0.647200
vn 0.508600 -0.338900 0.791500
vn 0.540600 -0.000000 0.841300
vn 0.508600 0.338900 0.791500
vn 0.415900 0.638900 0.647200
vn 0.272400 0.863800 0.423900
vn 0.141900 -0.863800 0.483400
vn 0.216700 -0.638900 0.738100
vn 0.265100 -0.338900 0.902700
vn 0.281700 -0.000000 0.959500
vn 0.265100 0.338900 0.902700
vn 0.216700 0.638900 0.738100
vn 0.141900 0.863800 0.483400
vn 0.000000 -0.863800 0.503800
vn 0.000000 -0.638900 0.769300
vn 0.000000 -0.338900 0.940800
vn 0.000000 -0.000000 1.000000
vn 0.000000 0.338900 0.940800
vn 0.000000 0.638900 0.769300
vn 0.000000 0.863800 0.503800
vn -0.141900 -0.863800 0.483400
vn -0.216700 -0.638900 0.738100
vn -0.265100 -0.338900 0.902700
vn -0.281700 -0.000000 0.959500
vn -0.265100 0.338900 0.902700
vn -0.216700 0.638900 0.738100
vn -0.141900 0.863800 0.483400
vn -0.272400 -0.863800 0.423900
vn -0.415900 -0.638900 0.647200
vn -0.508600 -0.338900 0.791500
vn -0.540600 -0.000000 0.841300
vn -0.508600 0.338900 0.791500
vn -0.415900 0.638900 0.647200
vn -0.272400 0.863800 0.423900
vn -0.380800 -0.863800 0.329900
vn -0.581400 -0.638900 0.503800
vn -0.711000 -0.338900 0.616100
vn -0.755700 -0.000000 0.654900
vn -0.711000 0.338900 0.616100
vn -0.581400 0.638900 0.503800
vn -0.380800 0.863800 0.329900
vn -0.458300 -0.863800 0.209300
vn -0.699800 -0.638900 0.319600
vn -0.855800 -0.338900 0.390800
vn -0.909600 -0.000000 0.415400
vn -0.855800 0.338900 0.390800
vn -0.699800 0.638900 0.319600
vn -0.458300 0.863800 0.209300
vn -0.498700 -0.863800 0.071700
vn -0.989800 -0.000000 0.142300
vn -0.931200 0.338900 0.133900
vn -0.761400 0.638900 0.109500
vn -0.498700 0.863800 0.071700
vn -0.173600 -0.984500 -0.025000
vn -0.498700 -0.863800 -0.071700
vn -0.761400 -0.638900 -0.109500
vn -0.931200 -0.338900 -0.133900
vn -0.989800 -0.000000 -0.142300
vn -0.931200 0.338900 -0.133900
vn -0.761400 0.638900 -0.109500
vn -0.498700 0.863800 -0.071700
vn -0.173600 0.984500 -0.025000
vn -0.159500 -0.984500 -0.072900
vn -0.159500 0.984500 -0.072900
vn -0.132500 -0.984500 -0.114800
vn -0.132500 0.984500 -0.114800
vn -0.094800 -0.984500 -0.147500
vn -0.094800 0.984500 -0.147500
vn -0.049400 -0.984500 -0.168300
vn -0.049400 0.984500 -0.168300
vn 0.000000 -0.984500 -0.175400
vn -0.000000 0.984500 -0.175400
vn 0.049400 -0.984500 -0.168300
vn 0.049400 0.984500 -0.168300
vn 0.094800 -0.984500 -0.147500
vn 0.094800 0.984500 -0.147500
vn 0.132500 -0.984500 -0.114800
vn 0.132500 0.984500 -0.114800
vn 0.159500 -0.984500 -0.072900
vn 0.159500 0.984500 -0.072900
vn 0.173600 -0.984500 -0.025000
vn 0.173600 0.984500 -0.025000
vn 0.173600 -0.984500 0.025000
vn 0.173600 0.984500 0.025000
vn 0.159500 -0.984500 0.072900
vn 0.159500 0.984500 0.072900
vn 0.132500 -0.984500 0.114800
vn 0.132500 0.984500 0.114800
vn 0.094800 -0.984500 0.147500
vn 0.094800 0.984500 0.147500
vn 0.049400 -0.984500 0.168300
vn 0.049400 0.984500 0.168300
vn -0.000000 -0.984500 0.175400
vn -0.000000 0.984500 0.175400
vn -0.049400 -0.984500 0.168300
vn -0.049400 0.984500 0.168300
vn -0.094800 -0.984500 0.147500
vn -0.094800 0.984500 0.147500
vn -0.132500 -0.984500 0.114800
vn -0.132500 0.984500 0.114800
vn -0.159500 -0.984500 0.072900
vn -0.159500 0.984500 0.072900
vn -0.173600 -0.984500 0.025000
vn -0.761400 -0.638900 0.109500
vn -0.931200 -0.338900 0.133900
vn -0.173600 0.984500 0.025000
usemtl None
s off
f 9//1 8//1 16//1 17//1
f 8//2 7//2 15//2 16//2
f 7//3 6//3 14//3 15//3
f 6//4 5//4 13//4 14//4
f 5//5 4//5 12//5 13//5
f 4//6 3//6 11//6 12//6
f 3//7 2//7 10//7 11//7
f 17//8 16//8 24//8 25//8
f 16//9 15//9 23//9 24//9
f 15//10 14//10 22//10 23//10
f 14//11 13//11 21//11 22//11
f 13//12 12//12 20//12 21//12
f 12//13 11//13 19//13 20//13
f 11//14 10//14 18//14 19//14
f 25//15 24//15 32//15 33//15
f 24//16 23//16 31//16 32//16
f 23//17 22//17 30//17 31//17
f 22//18 21//18 29//18 30//18
f 21//19 20//19 28//19 29//19
f 20//20 19//20 27//20 28//20
f 19//21 18//21 26//21 27//21
f 33//22 32//22 40//22 41//22
f 32//23 31//23 39//23 40//23
f 31//24 30//24 38//24 39//24
f 30//25 29//25 37//25 38//25
f 29//26 28//26 36//26 37//26
f 28//27 27//27 35//27 36//27
f 27//28 26//28 34//28 35//28
f 41//29 40//29 48//29 49//29
f 40//30 39//30 47//30 48//30
f 39//31 38//31 46//31 47//31
f 38//32 37//32 45//32 46//32
f 37//33 36//33 44//33 45//33
f 36//34 35//34 43//34 44//34
f 35//35 34//35 42//35 43//35
f 49//36 48//36 56//36 57//36
f 48//37 47//37 55//37 56//37
f 47//38 46//38 54//38 55//38
f 46//39 45//39 53//39 54//39
f 45//40 44//40 52//40 53//40
f 44//41 43//41 51//41 52//41
f 43//42 42//42 50//42 51//42
f 57//43 56//43 65//43 66//43
f 56//44 55//44 64//44 65//44
f 55//45 54//45 63//45 64//45
f 54//46 53//46 62//46 63//46
f 53//47 52//47 61//47 62//47
f 52//48 51//48 60//48 61//48
f 51//49 50//49 59//49 60//49
f 66//50 65//50 73//50 74//50
f 65//51 64//51 72//51 73//51
f 64//52 63//52 71//52 72//52
f 63//53 62//53 70//53 71//53
f 62//54 61//54 69//54 70//54
f 61//55 60//55 68//55 69//55
f 60//56 59//56 67//56 68//56
f 74//57 73//57 81//57 82//57
f 73//58 72//58 80//58 81//58
f 72//59 71//59 79//59 80//59
f 71//60 70//60 78//60 79//60
f 70//61 69//61 77//61 78//61
f 69//62 68//62 76//62 77//62
f 68//63 67//63 75//63 76//63
f 82//64 81//64 89//64 90//64
f 81//65 80//65 88//65 89//65
f 80//66 79//66 87//66 88//66
f 79//67 78//67 86//67 87//67
f 78//68 77//68 85//68 86//68
f 77//69 76//69 84//69 85//69
f 76//70 75//70 83//70 84//70
f 90//71 89//71 97//71 98//71
f 89//72 88//72 96//72 97//72
f 88//73 87//73 95//73 96//73
f 87//74 86//74 94//74 95//74
f 86//75 85//75 93//75 94//75
f 85//76 84//76 92//76 93//76
f 84//77 83//77 91//77 92//77
f 98//78 97//78 105//78 106//78
f 97//79 96//79 104//79 105//79
f 96//80 95//80 103//80 104//80
f 95//81 94//81 102//81 103//81
f 94//82 93//82 101//82 102//82
f 93//83 92//83 100//83 101//83
f 92//84 91//84 99//84 100//84
f 106//85 105//85 113//85 114//85
f 105//86 104//86 112//86 113//86
f 104//87 103//87 111//87 112//87
f 103//88 102//88 110//88 111//88
f 102//89 101//89 109//89 110//89
f 101//90 100//90 108//90 109//90
f 100//91 99//91 107//91 108//91
f 114//92 113//92 121//92 122//92
f 113//93 112//93 120//93 121//93
f 112//94 111//94 119//94 120//94
f 111//95 110//95 118//95 119//95
f 110//96 109//96 117//96 118//96
f 109//97 108//97 116//97 117//97
f 108//98 107//98 115//98 116//98
f 122//99 121//99 129//99 130//99
f 121//100 120//100 128//100 129//100
f 120//101 119//101 127//101 128//101
f 119//102 118//102 126//102 127//102
f 118//103 117//103 125//103 126//103
f 117//104 116//104 124//104 125//104
f 116//105 115//105 123//105 124//105
f 130//106 129//106 138//106 139//106
f 129//107 128//107 137//107 138//107
f 128//108 127//108 136//108 137//108
f 127//109 126//109 135//109 136//109
f 126//110 125//110 134//110 135//110
f 125//111 124//111 133//111 134//111
f 124//112 123//112 132//112 133//112
f 139//113 138//113 146//113 147//113
f 138//114 137//114 145//114 146//114
f 137//115 136//115 144//115 145//115
f 136//116 135//116 143//116 144//116
f 135//117 134//117 142//117 143//117
f 134//118 133//118 141//118 142//118
f 133//119 132//119 140//119 141//119
f 147//120 146//120 154//120 155//120
f 146//121 145//121 153//121 154//121
f 145//122 144//122 152//122 153//122
f 144//123 143//123 151//123 152//123
f 143//124 142//124 150//124 151//124
f 142//125 141//125 149//125 150//125
f 141//126 140//126 148//126 149//126
f 155//127 154//127 162//127 163//127
f 154//128 153//128 161//128 162//128
f 153//129 152//129 160//129 161//129
f 152//130 151//130 159//130 160//130
f 151//131 150//131 158//131 159//131
f 150//132 149//132 157//132 158//132
f 149//133 148//133 156//133 157//133
f 163//134 162//134 170//134 171//134
f 162//135 161//135 169//135 170//135
f 161//136 160//136 168//136 169//136
f 160//137 159//137 167//137 168//137
f 159//138 158//138 166//138 167//138
f 158//139 157//139 165//139 166//139
f 157//140 156//140 164//140 165//140
f 171//141 170//141 177//141 178//141
f 168//142 167//142 175//142 176//142
f 167//143 166//143 174//143 175//143
f 166//144 165//144 173//144 174//144
f 165//145 164//145 172//145 173//145
f 131//146 178//146 9//146
f 178//147 177//147 8//147 9//147
f 177//148 1//148 7//148 8//148
f 1//149 176//149 6//149 7//149
f 176//150 175//150 5//150 6//150
f 175//151 174//151 4//151 5//151
f 174//152 173//152 3//152 4//152
f 173//153 172//153 2//153 3//153
f 172//154 58//154 2//154
f 131//155 9//155 17//155
f 2//156 58//156 10//156
f 131//157 17//157 25//157
f 10//158 58//158 18//158
f 131//159 25//159 33//159
f 18//160 58//160 26//160
f 131//161 33//161 41//161
f 26//162 58//162 34//162
f 131//163 41//163 49//163
f 34//164 58//164 42//164
f 131//165 49//165 57//165
f 42//166 58//166 50//166
f 131//167 57//167 66//167
f 50//168 58//168 59//168
f 131//169 66//169 74//169
f 59//170 58//170 67//170
f 131//171 74//171 82//171
f 67//172 58//172 75//172
f 131//173 82//173 90//173
f 75//174 58//174 83//174
f 131//175 90//175 98//175
f 83//176 58//176 91//176
f 131//177 98//177 106//177
f 91//178 58//178 99//178
f 131//179 106//179 114//179
f 99//180 58//180 107//180
f 131//181 114//181 122//181
f 107//182 58//182 115//182
f 131//183 122//183 130//183
f 115//184 58//184 123//184
f 131//185 130//185 139//185
f 123//186 58//186 132//186
f 131//187 139//187 147//187
f 132//188 58//188 140//188
f 131//189 147//189 155//189
f 140//190 58//190 148//190
f 131//191 155//191 163//191
f 148//192 58//192 156//192
f 131//193 163//193 171//193
f 156//194 58//194 164//194
f 131//195 171//195 178//195
f 170//196 169//196 1//196 177//196
f 169//197 168//197 176//197 1//197
f 164//198 58//198 172//198
