# Blender v2.74 (sub 0) OBJ File: ''
# www.blender.org
v -0.261312 -0.977608 0.248010
v -0.261312 -0.977608 -0.251990
v 0.238688 -0.977608 0.248010
v 0.238688 -0.977608 -0.251990
v -0.261312 2.423262 0.248010
v -0.261312 2.423262 -0.251990
v -0.261312 -0.977608 -0.001990
v 0.238688 2.423262 -0.251990
v -0.011312 -0.977608 -0.251990
v 0.238688 2.423262 0.248010
v 0.238688 -0.977608 -0.001990
v -0.011312 -0.977608 0.248010
v -0.011312 3.146645 -0.001990
v -0.011312 -0.977608 -0.001990
v -0.011312 2.423262 0.248010
v 0.238688 2.423262 -0.001990
v -0.011312 2.423262 -0.251990
v -0.261312 2.423262 -0.001990
vn -1.000000 0.000000 0.000000
vn 0.000000 0.000000 -1.000000
vn 1.000000 0.000000 0.000000
vn 0.000000 0.000000 1.000000
vn 0.000000 -1.000000 0.000000
vn -0.945100 0.326600 0.000000
vn 0.000000 0.326600 0.945100
vn 0.945100 0.326600 0.000000
vn 0.000000 0.326600 -0.945100
s off
f 6//1 2//1 7//1
f 8//2 4//2 9//2
f 10//3 3//3 11//3
f 5//4 1//4 12//4
f 9//5 4//5 11//5
f 18//6 5//6 13//6
f 14//5 11//5 3//5
f 7//5 14//5 12//5
f 2//5 9//5 14//5
f 15//4 12//4 3//4
f 16//3 11//3 4//3
f 13//6 6//6 18//6
f 17//2 9//2 2//2
f 18//1 7//1 1//1
f 5//7 15//7 13//7
f 10//7 13//7 15//7
f 16//8 13//8 10//8
f 8//8 13//8 16//8
f 6//9 13//9 17//9
f 17//9 13//9 8//9
f 18//1 6//1 7//1
f 17//2 8//2 9//2
f 16//3 10//3 11//3
f 15//4 5//4 12//4
f 14//5 9//5 11//5
f 12//5 14//5 3//5
f 1//5 7//5 12//5
f 7//5 2//5 14//5
f 10//4 15//4 3//4
f 8//3 16//3 4//3
f 6//2 17//2 2//2
f 5//1 18//1 1//1
